<svg xmlns="http://www.w3.org/2000/svg" viewBox="0 0 512 512" role="img" aria-label="CampusFlow">
  <defs><linearGradient id="g" x1="0" y1="0" x2="1" y2="1"><stop stop-color="#4fe2c1"/><stop offset="1" stop-color="#ffca6a"/></linearGradient></defs>
  <rect width="512" height="512" fill="#08111f"/>
  <circle cx="256" cy="256" r="164" fill="#10283a"/>
  <path d="M151 256c0-65 42-108 106-108 38 0 69 15 90 41l-44 36c-12-16-27-24-45-24-32 0-53 22-53 55s21 55 53 55c18 0 33-8 45-24l44 36c-21 26-52 41-90 41-64 0-106-43-106-108Z" fill="url(#g)"/>
  <path d="M250 236h102v40H250z" fill="#f5fbfa" opacity=".92"/>
</svg>
